<?xml version="1.0" encoding="UTF-8" standalone="no"?>
<!DOCTYPE svg PUBLIC "-//W3C//DTD SVG 1.1//EN" "http://www.w3.org/Graphics/SVG/1.1/DTD/svg11.dtd">
<svg width="100%" height="100%" viewBox="0 0 8000 4862" version="1.1" xmlns="http://www.w3.org/2000/svg" xmlns:xlink="http://www.w3.org/1999/xlink" xml:space="preserve" xmlns:serif="http://www.serif.com/" style="fill-rule:evenodd;clip-rule:evenodd;stroke-linejoin:round;stroke-miterlimit:2;">
    <g id="Layer-1" serif:id="Layer 1" transform="matrix(4.166667,0,0,4.166667,0,0)">
        <g transform="matrix(1.150903,0,0,0.918246,468.967809,884.806019)">
            <path d="M0,-1172.915C-71.966,-1052.763 -159.323,-941.561 -259.222,-843.388C-276.531,-826.3 -298.524,-805.699 -316.726,-789.454C-336.109,-771.944 -356.581,-755.198 -372.154,-734.062C-390.09,-710.28 -400.51,-678.024 -390.561,-648.957C-383.395,-628.067 -365.355,-613.678 -344.662,-607.276C-319.689,-599.381 -292.976,-599.785 -267.094,-601.709C-251.483,-603.023 -154.337,-612.292 -136.367,-613.901C-120.369,-615.504 -99.678,-617.136 -84.111,-618.939C-66.861,-620.987 -49.472,-624.132 -33.605,-631.403C-14.145,-640.271 3.29,-656.623 8.799,-677.802C9.252,-679.873 9.782,-682.043 9.971,-684.162C12.588,-703.377 0.711,-723.895 -17.355,-731.033C-52.193,-743.309 -71.361,-701.513 -58.532,-673.173C-53.214,-661.138 -41.763,-652.926 -29.5,-648.912C-12.86,-643.612 5.494,-645.36 21.632,-651.64C80.437,-676.288 97.743,-746.882 147.927,-782.274C162.155,-792.671 179.449,-799.069 197.174,-799.264C238.889,-799.818 261.973,-770.032 258.132,-729.763C255.746,-695.114 240.43,-661.213 246.068,-626.221C257.54,-566.227 331.528,-567.795 373.758,-594.056C419.945,-621.603 453.39,-662.775 509.462,-672.182C570.976,-682.891 633.69,-658.769 682.345,-621.909C738.172,-578.635 776.912,-518.053 815.269,-459.808C860.047,-389.895 911.639,-324.143 970.808,-265.815C1039.017,-198.09 1116.428,-139.325 1200.739,-93.069C1258.289,-61.768 1319.352,-36.254 1382.78,-19.61C1416.62,-10.682 1451.134,-4.306 1485.904,-0.313L1485.869,0C1433.651,-5.585 1381.932,-16.861 1332.114,-33.489C1211.536,-74.124 1101.735,-143.252 1007.033,-227.679C945.056,-283.235 889.322,-345.995 841.839,-414.371C786.213,-493.913 739.009,-586.054 653.335,-637.58C617.968,-658.547 577.302,-672.389 535.871,-671.677C509.824,-671.363 483.96,-664.488 461.323,-651.558C416.04,-626.292 379.683,-580.196 325.229,-574.828C287.971,-570.425 250.893,-585.706 243.844,-625.819C238.229,-661.111 253.711,-695.083 256.302,-729.899C257.804,-747.035 255.047,-765.342 243.566,-778.75C226.368,-799.215 195.679,-801.685 171.656,-793.334C103.347,-767.887 88.939,-678.228 21.986,-650.733C5.62,-644.413 -12.916,-642.62 -29.808,-647.959C-42.318,-652.016 -54.074,-660.454 -59.509,-672.735C-68.286,-692.514 -63.125,-720.651 -42.887,-731.206C-15.297,-744.56 13.527,-714.667 11.726,-687.303C10.534,-665.954 -3.813,-647.507 -21.277,-636.203C-39.852,-624.099 -62.196,-619.647 -83.873,-616.967C-120.633,-613.02 -203.317,-605.241 -240.716,-601.52C-266.885,-598.937 -293.313,-596.107 -319.589,-599.215C-337.083,-601.287 -354.869,-605.975 -369.353,-616.41C-401.017,-638.9 -403.294,-679.686 -387.948,-712.936C-376.746,-737.123 -357.581,-756.294 -338.047,-773.892C-316.353,-793.276 -291.15,-815.556 -270.321,-835.964C-204.217,-899.649 -143.278,-968.972 -88.361,-1042.54C-56.987,-1084.175 -27.634,-1129.497 0,-1172.915" style="fill:rgb(174,101,0);fill-rule:nonzero;"/>
        </g>
        <g transform="matrix(1,0,0,1,-2.64,-2.88)">
            <g>
                <g transform="matrix(0.690632,0.094994,-0.094994,0.690632,-16.643371,-62.635517)">
                    <g transform="matrix(1,0,0,1,153.7919,305.1144)">
                        <path d="M0,26.89C0.2,27.068 0.4,27.246 0.601,27.424C-0.995,28.767 -2.594,30.104 -4.11,31.44C-5.669,32.812 -7.185,34.219 -8.706,35.621C-8.907,35.442 -9.107,35.263 -9.308,35.084C-7.087,33.071 -7.645,31.124 -10.728,28.373C-15.523,24.092 -20.292,19.818 -25.034,15.552C-28.082,12.81 -30.251,12.307 -32.559,14.215C-32.756,14.037 -32.953,13.859 -33.15,13.682C-31.542,12.375 -29.98,11.026 -28.42,9.674C-26.901,8.357 -25.344,7.001 -23.831,5.602C-23.635,5.778 -23.438,5.955 -23.242,6.132C-25.449,8.14 -24.922,10.066 -21.876,12.804C-19.801,14.667 -17.721,16.531 -15.637,18.397C-11.279,14.579 -6.944,10.728 -2.63,6.845C-4.713,4.993 -6.791,3.142 -8.864,1.293C-11.911,-1.423 -14.067,-1.901 -16.347,0.05C-16.544,-0.126 -16.74,-0.302 -16.936,-0.478C-15.349,-1.814 -13.805,-3.191 -12.265,-4.574C-10.765,-5.919 -9.228,-7.304 -7.735,-8.731C-7.538,-8.556 -7.342,-8.381 -7.145,-8.206C-9.324,-6.158 -8.79,-4.227 -5.744,-1.515C-1.006,2.704 3.758,6.93 8.548,11.163C11.627,13.884 13.815,14.359 16.076,12.359C16.276,12.535 16.476,12.711 16.676,12.887C15.101,14.259 13.522,15.625 12.024,16.989C10.486,18.391 8.987,19.826 7.486,21.257C7.286,21.08 7.086,20.903 6.886,20.725C9.078,18.671 8.51,16.719 5.43,13.994C3.077,11.912 0.73,9.831 -1.61,7.752C-5.923,11.638 -10.258,15.491 -14.615,19.311C-12.273,21.406 -9.925,23.502 -7.571,25.601C-4.488,28.347 -2.291,28.85 0,26.89" style="fill:rgb(174,101,0);fill-rule:nonzero;"/>
                    </g>
                    <g transform="matrix(1,0,0,1,173.3711,277.8216)">
                        <path d="M0,36.419C2.17,34.331 1.595,32.376 -1.483,29.671C-6.271,25.462 -11.032,21.26 -15.767,17.065C-18.811,14.368 -20.959,13.912 -23.216,15.897C-23.413,15.722 -23.609,15.548 -23.805,15.373C-20.501,12.434 -17.453,9.622 -14.613,6.982C-11.775,4.342 -9.107,1.837 -6.688,-0.528C-5.313,0.684 -3.937,1.896 -2.558,3.109C-2.703,3.247 -2.849,3.385 -2.995,3.522C-5.802,1.631 -7.668,2.018 -10.299,4.484C-12.465,6.515 -14.637,8.536 -16.815,10.55C-13.304,13.662 -9.779,16.778 -6.239,19.899C-4.316,18.11 -2.398,16.314 -0.485,14.511C1.509,12.633 1.732,10.943 0.191,9.08C0.336,8.942 0.482,8.804 0.627,8.666C2.661,10.452 4.699,12.239 6.742,14.028C6.597,14.166 6.451,14.304 6.306,14.443C4.154,13.067 2.566,13.415 0.492,15.37C-1.421,17.173 -3.339,18.97 -5.261,20.76C-2.767,22.957 -0.265,25.156 2.243,27.358C4.896,29.684 6.234,29.913 8.87,27.427C9.867,26.486 10.864,25.542 11.859,24.597C14.805,21.797 15.35,19.15 13.546,16.344C13.704,16.192 13.863,16.04 14.021,15.888C15.308,17.47 16.599,19.053 17.892,20.637C15.113,23.227 12.245,25.879 9.37,28.591C6.496,31.303 3.574,34.114 0.6,36.947C0.4,36.771 0.2,36.595 0,36.419" style="fill:rgb(174,101,0);fill-rule:nonzero;"/>
                    </g>
                    <g transform="matrix(1,0,0,1,194.9333,286.1817)">
                        <path d="M0,-12.907C-4.676,-14.936 -9.339,-16.969 -13.989,-19.006C-11.565,-14.805 -9.127,-10.595 -6.675,-6.377C-4.443,-8.545 -2.218,-10.721 0,-12.907M-2.291,9.849C-0.593,8.133 -0.973,6.134 -2.838,2.915C-7.499,-5.107 -12.11,-13.099 -16.67,-21.063C-15.911,-21.8 -15.151,-22.538 -14.393,-23.278C-5.318,-19.326 3.804,-15.392 12.974,-11.474C15.98,-10.188 17.989,-10.13 19.387,-11.541C19.464,-11.619 19.542,-11.698 19.619,-11.776C19.818,-11.604 20.018,-11.433 20.217,-11.261C18.895,-10.003 17.568,-8.75 16.283,-7.462C14.958,-6.135 13.714,-4.812 12.39,-3.415C12.19,-3.588 11.99,-3.76 11.79,-3.933C13.071,-5.366 13.177,-6.509 12.024,-7.504C11.469,-7.983 10.718,-8.269 9.841,-8.664C7.111,-9.837 4.386,-11.011 1.665,-12.187C-0.813,-9.741 -3.3,-7.307 -5.794,-4.883C-4.37,-2.481 -2.941,-0.077 -1.507,2.33C-1.021,3.116 -0.583,3.714 -0.113,4.123C1.17,5.237 2.567,5.142 3.985,3.758C4.184,3.931 4.384,4.104 4.584,4.278C3.439,5.318 2.292,6.355 1.265,7.351C0.24,8.347 -0.745,9.379 -1.692,10.371C-1.891,10.197 -2.091,10.023 -2.291,9.849" style="fill:rgb(174,101,0);fill-rule:nonzero;"/>
                    </g>
                    <g transform="matrix(1,0,0,1,215.949,243.6309)">
                        <path d="M0,29.363C2.089,27.164 1.489,25.199 -1.579,22.563C-6.352,18.46 -11.099,14.364 -15.82,10.275C-18.854,7.647 -20.969,7.262 -23.147,9.361C-23.343,9.19 -23.539,9.02 -23.734,8.85C-22.256,7.45 -20.744,5.933 -19.197,4.373C-17.649,2.813 -16.067,1.209 -14.454,-0.514C-14.258,-0.345 -14.062,-0.175 -13.866,-0.006C-13.98,0.112 -14.058,0.191 -14.174,0.308C-16.331,2.504 -15.842,4.526 -12.766,7.187C-7.864,11.426 -2.933,15.672 2.025,19.926C4.71,22.23 5.986,22.378 8.524,19.759C9.498,18.753 10.47,17.746 11.441,16.736C14.431,13.627 14.858,10.651 12.703,7.652C12.881,7.466 13.059,7.279 13.236,7.092C14.572,8.956 15.911,10.822 17.253,12.69C14.577,15.42 11.814,18.217 9.045,21.075C6.276,23.933 3.463,26.893 0.598,29.877C0.399,29.706 0.199,29.534 0,29.363" style="fill:rgb(174,101,0);fill-rule:nonzero;"/>
                    </g>
                    <g transform="matrix(1,0,0,1,220.8236,253.0882)">
                        <path d="M0,-28.959C-2.039,-26.715 -1.497,-24.727 1.531,-22.134C6.242,-18.102 10.98,-14.062 15.744,-10.016C18.806,-7.415 20.972,-7.105 23.089,-9.303C23.288,-9.135 23.488,-8.966 23.687,-8.798C22.173,-7.249 20.654,-5.704 19.214,-4.168C17.773,-2.631 16.373,-1.063 14.969,0.502C14.77,0.332 14.571,0.163 14.372,-0.006C16.423,-2.255 15.848,-4.264 12.785,-6.869C8.02,-10.923 3.281,-14.97 -1.432,-19.01C-4.461,-21.607 -6.598,-21.92 -8.737,-19.771C-8.932,-19.939 -9.128,-20.107 -9.323,-20.276C-7.832,-21.749 -6.386,-23.262 -4.942,-24.781C-3.499,-26.298 -2.02,-27.86 -0.587,-29.461C-0.391,-29.294 -0.196,-29.126 0,-28.959" style="fill:rgb(174,101,0);fill-rule:nonzero;"/>
                    </g>
                    <g transform="matrix(1,0,0,1,247.1537,195.8643)">
                        <path d="M0,44.42C2.21,41.858 1.515,39.967 -1.757,37.202C-6.303,33.359 -10.826,29.523 -15.324,25.692C-18.645,22.863 -20.581,22.371 -23.083,24.805C-23.278,24.638 -23.473,24.471 -23.669,24.304C-22.684,23.331 -21.743,22.322 -20.84,21.351C-19.899,20.34 -18.999,19.367 -18.177,18.399C-7.298,18.8 3.588,19.126 14.48,19.375C9.672,15.347 4.891,11.326 0.138,7.311C-2.63,4.973 -4.389,4.646 -6.48,6.721C-6.675,6.555 -6.87,6.39 -7.065,6.225C-6.022,5.149 -5.023,4.037 -4.025,2.922C-3.027,1.808 -1.993,0.65 -1.039,-0.504C-0.844,-0.339 -0.649,-0.174 -0.455,-0.01C-2.198,2.362 -1.67,3.899 1.055,6.201C7.612,11.735 14.219,17.282 20.879,22.843C20.694,23.052 20.51,23.261 20.326,23.469C7.85,23.183 -4.618,22.797 -17.077,22.312C-11.708,26.888 -6.305,31.473 -0.868,36.068C2.49,38.904 4.62,39.392 6.898,36.883C6.936,36.842 6.973,36.8 7.01,36.759C7.209,36.927 7.408,37.094 7.607,37.262C6.444,38.46 5.278,39.656 4.079,40.967C2.917,42.238 1.797,43.542 0.597,44.924C0.398,44.756 0.199,44.588 0,44.42" style="fill:rgb(174,101,0);fill-rule:nonzero;"/>
                    </g>
                    <g transform="matrix(1,0,0,1,286.1143,180.4057)">
                        <path d="M0,18.135C-7.587,27.101 -17.177,28.261 -24.304,22.286C-28.522,18.75 -30.685,14.245 -30.712,9.216C-30.703,5.305 -29.295,1.702 -26.717,-1.287C-24.14,-4.276 -21.137,-5.537 -19.947,-6.937C-19.189,-7.827 -19.097,-8.693 -19.594,-9.616C-19.45,-9.786 -19.306,-9.956 -19.162,-10.126C-16.733,-8.096 -14.296,-6.064 -11.852,-4.031C-12.008,-3.846 -12.163,-3.661 -12.319,-3.477C-17.252,-5.913 -22.145,-4.926 -25.593,-0.925C-30.237,4.463 -29.275,12.026 -22.577,17.638C-15.288,23.743 -6.216,23.516 -1.411,17.838C1.156,14.81 1.174,12.722 -1.408,10.586C-2.086,10.025 -2.763,9.464 -3.439,8.904C-6.315,6.522 -8.012,6.417 -10.442,9.187C-10.638,9.023 -10.835,8.86 -11.031,8.696C-9.543,7.032 -8.171,5.414 -6.767,3.75C-5.398,2.128 -4.034,0.503 -2.75,-1.118C-2.554,-0.955 -2.357,-0.792 -2.16,-0.63C-4.07,1.996 -3.368,3.449 -0.409,5.897C1.48,7.459 3.373,9.022 5.27,10.586C3.792,13.214 1.988,15.788 0,18.135" style="fill:rgb(174,101,0);fill-rule:nonzero;"/>
                    </g>
                    <g transform="matrix(1,0,0,1,289.724,173.876)">
                        <path d="M0,-28.872C-1.889,-26.441 -1.301,-24.432 1.703,-21.954C6.377,-18.101 11.077,-14.241 15.804,-10.374C18.842,-7.889 20.939,-7.702 22.905,-10.09C23.102,-9.929 23.3,-9.768 23.497,-9.607C22.091,-7.924 20.681,-6.244 19.345,-4.578C18.009,-2.911 16.712,-1.214 15.412,0.48C15.215,0.318 15.017,0.156 14.82,-0.006C16.721,-2.442 16.099,-4.472 13.059,-6.961C8.331,-10.835 3.629,-14.702 -1.047,-18.563C-4.051,-21.044 -6.12,-21.234 -8.111,-18.893C-8.305,-19.054 -8.499,-19.215 -8.692,-19.376C-7.305,-20.982 -5.961,-22.626 -4.621,-24.275C-3.281,-25.923 -1.909,-27.619 -0.581,-29.352C-0.387,-29.192 -0.194,-29.032 0,-28.872" style="fill:rgb(174,101,0);fill-rule:nonzero;"/>
                    </g>
                    <g transform="matrix(1,0,0,1,311.0134,131.3505)">
                        <path d="M0,23.066C0.163,22.86 0.325,22.654 0.488,22.448C4.27,25.025 8.459,24.292 11.12,20.863C13.507,17.79 13.236,13.945 10.711,11.898C7.974,9.678 4.913,10.822 -0.068,12.71C-5.379,14.759 -8.918,15.633 -12.381,12.79C-15.844,9.945 -16.223,4.915 -13.135,0.997C-11.365,-1.249 -9.327,-2.117 -8.602,-3.046C-8.152,-3.622 -8.173,-4.291 -8.637,-4.744C-8.475,-4.95 -8.314,-5.157 -8.153,-5.364C-6.358,-3.892 -4.558,-2.42 -2.755,-0.947C-2.915,-0.74 -3.075,-0.533 -3.236,-0.326C-6.641,-2.162 -9.917,-1.439 -12.242,1.513C-14.497,4.375 -14.392,7.435 -12.143,9.283C-10.436,10.685 -7.818,10.947 -4.899,9.851C-1.57,8.583 1.246,7.251 3.736,6.594C6.53,5.894 9.324,6.421 11.426,8.124C15.126,11.12 15.569,16.993 12.148,21.405C10.281,23.81 7.987,24.706 6.98,25.991C6.528,26.567 6.56,27.319 7.077,27.811C6.914,28.017 6.752,28.224 6.59,28.43C4.388,26.641 2.191,24.853 0,23.066" style="fill:rgb(174,101,0);fill-rule:nonzero;"/>
                    </g>
                </g>
            </g>
        </g>
        <g transform="matrix(0.680257,0.007263,-0.006349,0.594657,584.94095,65.749685)">
            <g transform="matrix(0.633281,0.773922,-0.773922,0.633281,0,0)">
                <text x="1470.044px" y="-545.054px" style="font-family:'Helvetica';font-size:54px;fill:rgb(174,101,0);">N</text>
            </g>
            <g transform="matrix(0.661911,0.749582,-0.749582,0.661911,0,0)">
                <text x="1525.978px" y="-488.068px" style="font-family:'Helvetica';font-size:54px;fill:rgb(174,101,0);">O</text>
            </g>
            <g transform="matrix(0.689651,0.724142,-0.724142,0.689651,0,0)">
                <text x="1580.161px" y="-428.916px" style="font-family:'Helvetica';font-size:54px;fill:rgb(174,101,0);">N</text>
            </g>
            <g transform="matrix(0.722139,0.691748,-0.691748,0.722139,0,0)">
                <text x="1647.803px" y="-354.133px" style="font-family:'Helvetica';font-size:54px;fill:rgb(174,101,0);">L</text>
            </g>
            <g transform="matrix(0.737661,0.675172,-0.675172,0.737661,0,0)">
                <text x="1682.364px" y="-316.072px" style="font-family:'Helvetica';font-size:54px;fill:rgb(174,101,0);">I</text>
            </g>
            <g transform="matrix(0.755969,0.654608,-0.654608,0.755969,0,0)">
                <text x="1707.529px" y="-269.036px" style="font-family:'Helvetica';font-size:54px;fill:rgb(174,101,0);">N</text>
            </g>
            <g transform="matrix(0.777323,0.629102,-0.629102,0.777323,0,0)">
                <text x="1752.086px" y="-210.952px" style="font-family:'Helvetica';font-size:54px;fill:rgb(174,101,0);">E</text>
            </g>
            <g transform="matrix(0.795588,0.605838,-0.605838,0.795588,0,0)">
                <text x="1785.915px" y="-158.205px" style="font-family:'Helvetica';font-size:54px;fill:rgb(174,101,0);">A</text>
            </g>
            <g transform="matrix(0.81389,0.58102,-0.58102,0.81389,0,0)">
                <text x="1819.256px" y="-102.151px" style="font-family:'Helvetica';font-size:54px;fill:rgb(174,101,0);">R</text>
            </g>
        </g>
    </g>
</svg>
